<?xml version="1.0" encoding="UTF-8"?>
<svg width="24px" height="24px" viewBox="0 0 24 24" version="1.1" xmlns="http://www.w3.org/2000/svg" xmlns:xlink="http://www.w3.org/1999/xlink">
    <title>icon_sqzx</title>
    <g id="页面-1" stroke="none" stroke-width="1" fill="none" fill-rule="evenodd">
        <g id="切图" transform="translate(-378.000000, -233.000000)">
            <g id="icon_sqzx" transform="translate(378.000000, 233.000000)">
                <rect id="Rectangle" x="0" y="0" width="24" height="24"></rect>
                <g id="编组" transform="translate(5.000000, 4.000000)" fill="#FFFFFF" fill-rule="nonzero">
                    <path d="M15.7611833,8.1443226 C15.6712362,8.05942695 15.5526696,8.01414927 15.4218374,8.01414927 C15.2950938,8.01414927 15.1724387,8.06320009 15.0824916,8.1443226 L14.2157287,8.94422827 L16.04329,10.6289353 L16.8589466,9.77997878 C16.950938,9.6969697 17,9.5837755 17,9.46869473 C17,9.35172739 16.9468494,9.23853319 16.8589466,9.15741068 L15.7611833,8.1443226 L15.7611833,8.1443226 Z M9.78583454,6.36151397 L4.51166426,6.36151397 C3.93314093,6.36151397 3.46500722,5.92948945 3.46500722,5.39747671 C3.46500722,4.86357741 3.93314093,4.43343945 4.51166426,4.43343945 L9.78583454,4.43343945 C10.3643579,4.43343945 10.8324916,4.86546398 10.8324916,5.39747671 C10.8324916,5.93137602 10.3643579,6.36151397 9.78583454,6.36151397 Z M7.66594517,10.2403019 L4.51166426,10.2403019 C3.93314093,10.2403019 3.46500722,9.80827733 3.46500722,9.27626459 C3.46500722,8.74236529 3.93314093,8.31222733 4.51166426,8.31222733 L7.66594517,8.31222733 C8.24446849,8.31222733 8.71260221,8.74425186 8.71260221,9.27626459 C8.71260221,9.8101639 8.24446849,10.2403019 7.66594517,10.2403019 Z M12.1919192,0 L2.54100529,0 C1.13864839,0 0,1.04893291 0,2.34311992 L0,13.6568801 C0,14.9510671 1.13864839,16 2.54100529,16 L6.05098605,16 L6.05098605,13.9002476 L14.7349687,5.70876076 L14.7349687,2.34500649 C14.7349687,1.05081948 13.5963203,0 12.1919192,0 L12.1919192,0 Z M8.34259259,14.315293 L8.34259259,16 L10.1742424,16 L15.466811,11.0685061 L13.6392496,9.38002594 L8.34259259,14.315293 Z" id="形状"></path>
                </g>
            </g>
        </g>
    </g>
</svg>