<?xml version="1.0" standalone="no"?><!DOCTYPE svg PUBLIC "-//W3C//DTD SVG 1.1//EN" "http://www.w3.org/Graphics/SVG/1.1/DTD/svg11.dtd"><svg t="1681370367775" class="icon" viewBox="0 0 1024 1024" version="1.1" xmlns="http://www.w3.org/2000/svg" p-id="3226" width="32" height="32" xmlns:xlink="http://www.w3.org/1999/xlink"><path d="M0 0h1024v1024H0z" fill="#6690FF" p-id="3227"></path><path d="M311.4752 234.6752h115.2a76.8 76.8 0 0 1 76.8 76.8v115.2a76.8 76.8 0 0 1-76.8 76.8h-115.2a76.8 76.8 0 0 1-76.8-76.8v-115.2a76.8 76.8 0 0 1 76.8-76.8z m307.2 0h115.2a76.8 76.8 0 0 1 76.8 76.8v115.2a76.8 76.8 0 0 1-76.8 76.8h-115.2a76.8 76.8 0 0 1-76.8-76.8v-115.2a76.8 76.8 0 0 1 76.8-76.8z m-307.2 307.2h115.2a76.8 76.8 0 0 1 76.8 76.8v115.2a76.8 76.8 0 0 1-76.8 76.8h-115.2a76.8 76.8 0 0 1-76.8-76.8v-115.2a76.8 76.8 0 0 1 76.8-76.8z m307.2 0h115.2a76.8 76.8 0 0 1 76.8 76.8v115.2a76.8 76.8 0 0 1-76.8 76.8h-115.2a76.8 76.8 0 0 1-76.8-76.8v-115.2a76.8 76.8 0 0 1 76.8-76.8z" fill="#FFFFFF" p-id="3228"></path></svg>